<svg width="128" height="128" viewBox="0 0 128 128" xmlns="http://www.w3.org/2000/svg">
  <defs>
    <linearGradient id="g" x1="0" x2="1" y1="0" y2="1">
      <stop offset="0" stop-color="#0d6efd"/>
      <stop offset="1" stop-color="#2dd4bf"/>
    </linearGradient>
  </defs>
  <rect rx="24" ry="24" width="128" height="128" fill="url(#g)"></rect>
  <g fill="white" transform="translate(24,24)">
    <path d="M40 0c22.091 0 40 17.909 40 40s-17.909 40-40 40S0 62.091 0 40 17.909 0 40 0zm-9 16h18v6H31v-6zm-6 12h30v6H25v-6zm-6 12h42v6H19v-6zm0 12h42v6H19v-6z" opacity=".85"/>
    <path d="M22 56h36v6H22z" opacity=".85"/>
  </g>
</svg>